# MagicaVoxel @ Ephtracy

# material
mtllib floor.mtl
usemtl palette

# normals
vn -1 0 0
vn 1 0 0
vn 0 0 1
vn 0 0 -1
vn 0 -1 0
vn 0 1 0

# texcoords
vt 0.396484 0.5
vt 0.970703 0.5
vt 0.974609 0.5
vt 0.978516 0.5
vt 0.982422 0.5

# verts
v -16 12 14
v -16 12 -3
v -16 14 14
v -16 14 -3
v 1 12 14
v 1 12 -3
v 1 14 14
v 1 14 -3
v -16 12 14
v -16 14 14
v 1 12 14
v 1 14 14
v -16 12 -3
v -16 14 -3
v 1 12 -3
v 1 14 -3
v -16 12 14
v 1 12 14
v -16 12 -3
v 1 12 -3
v -16 14 14
v 1 14 14
v -10 14 13
v -5 14 13
v -12 14 12
v -10 14 12
v -5 14 12
v -3 14 12
v -13 14 11
v -12 14 11
v -10 14 11
v -5 14 11
v -3 14 11
v -2 14 11
v -14 14 10
v -13 14 10
v -11 14 10
v -10 14 10
v -5 14 10
v -4 14 10
v -2 14 10
v -1 14 10
v -12 14 9
v -11 14 9
v -10 14 9
v -5 14 9
v -4 14 9
v -3 14 9
v -15 14 8
v -14 14 8
v -13 14 8
v -12 14 8
v -11 14 8
v -4 14 8
v -3 14 8
v -2 14 8
v -1 14 8
v 0 14 8
v -9 14 7
v -6 14 7
v -8 14 6
v -7 14 6
v -8 14 5
v -7 14 5
v -9 14 4
v -6 14 4
v -15 14 3
v -14 14 3
v -13 14 3
v -12 14 3
v -11 14 3
v -4 14 3
v -3 14 3
v -2 14 3
v -1 14 3
v 0 14 3
v -12 14 2
v -11 14 2
v -10 14 2
v -5 14 2
v -4 14 2
v -3 14 2
v -14 14 1
v -13 14 1
v -11 14 1
v -10 14 1
v -5 14 1
v -4 14 1
v -2 14 1
v -1 14 1
v -13 14 -0
v -12 14 -0
v -10 14 -0
v -5 14 -0
v -3 14 -0
v -2 14 -0
v -12 14 -1
v -10 14 -1
v -5 14 -1
v -3 14 -1
v -10 14 -2
v -5 14 -2
v -16 14 -3
v 1 14 -3

# faces
f 3/2/1 2/2/1 1/2/1
f 4/2/1 2/2/1 3/2/1
f 5/2/2 6/2/2 7/2/2
f 7/2/2 6/2/2 8/2/2
f 11/2/3 10/2/3 9/2/3
f 12/2/3 10/2/3 11/2/3
f 13/2/4 14/2/4 15/2/4
f 15/2/4 14/2/4 16/2/4
f 19/2/5 18/2/5 17/2/5
f 20/2/5 18/2/5 19/2/5
f 21/2/6 22/2/6 23/2/6
f 23/2/6 22/2/6 24/2/6
f 21/2/6 23/2/6 25/2/6
f 23/3/6 24/3/6 26/3/6
f 25/2/6 23/2/6 26/2/6
f 24/2/6 22/2/6 27/2/6
f 26/3/6 24/3/6 27/3/6
f 27/2/6 22/2/6 28/2/6
f 21/2/6 25/2/6 29/2/6
f 25/3/6 26/3/6 30/3/6
f 29/2/6 25/2/6 30/2/6
f 26/3/6 27/3/6 30/3/6
f 27/3/6 28/3/6 30/3/6
f 30/3/6 28/3/6 31/3/6
f 31/3/6 28/3/6 32/3/6
f 28/2/6 22/2/6 33/2/6
f 32/3/6 28/3/6 33/3/6
f 33/2/6 22/2/6 34/2/6
f 21/2/6 29/2/6 35/2/6
f 29/3/6 30/3/6 36/3/6
f 35/2/6 29/2/6 36/2/6
f 30/3/6 31/3/6 36/3/6
f 36/3/6 31/3/6 37/3/6
f 31/4/6 32/4/6 38/4/6
f 37/3/6 31/3/6 38/3/6
f 33/3/6 34/3/6 39/3/6
f 38/4/6 32/4/6 39/4/6
f 32/3/6 33/3/6 39/3/6
f 39/3/6 34/3/6 40/3/6
f 34/2/6 22/2/6 41/2/6
f 40/3/6 34/3/6 41/3/6
f 41/2/6 22/2/6 42/2/6
f 36/3/6 37/3/6 43/3/6
f 35/3/6 36/3/6 43/3/6
f 37/4/6 38/4/6 44/4/6
f 43/3/6 37/3/6 44/3/6
f 38/5/6 39/5/6 45/5/6
f 44/4/6 38/4/6 45/4/6
f 39/4/6 40/4/6 46/4/6
f 45/5/6 39/5/6 46/5/6
f 41/3/6 42/3/6 47/3/6
f 46/4/6 40/4/6 47/4/6
f 40/3/6 41/3/6 47/3/6
f 47/3/6 42/3/6 48/3/6
f 21/2/6 35/2/6 49/2/6
f 35/3/6 43/3/6 50/3/6
f 49/2/6 35/2/6 50/2/6
f 50/3/6 43/3/6 51/3/6
f 43/4/6 44/4/6 52/4/6
f 51/3/6 43/3/6 52/3/6
f 44/5/6 45/5/6 53/5/6
f 52/4/6 44/4/6 53/4/6
f 45/5/6 46/5/6 53/5/6
f 46/5/6 47/5/6 53/5/6
f 47/4/6 48/4/6 54/4/6
f 53/5/6 47/5/6 54/5/6
f 48/3/6 42/3/6 55/3/6
f 54/4/6 48/4/6 55/4/6
f 55/3/6 42/3/6 56/3/6
f 42/2/6 22/2/6 57/2/6
f 56/3/6 42/3/6 57/3/6
f 57/2/6 22/2/6 58/2/6
f 53/5/6 54/5/6 59/5/6
f 52/5/6 53/5/6 59/5/6
f 54/5/6 55/5/6 59/5/6
f 59/5/6 55/5/6 60/5/6
f 59/1/6 60/1/6 61/1/6
f 61/1/6 60/1/6 62/1/6
f 59/1/6 61/1/6 63/1/6
f 61/2/6 62/2/6 63/2/6
f 62/1/6 60/1/6 64/1/6
f 63/2/6 62/2/6 64/2/6
f 52/5/6 59/5/6 65/5/6
f 59/1/6 63/1/6 65/1/6
f 63/1/6 64/1/6 65/1/6
f 64/1/6 60/1/6 66/1/6
f 65/1/6 64/1/6 66/1/6
f 60/5/6 55/5/6 66/5/6
f 21/2/6 49/2/6 67/2/6
f 49/3/6 50/3/6 67/3/6
f 50/3/6 51/3/6 67/3/6
f 67/3/6 51/3/6 68/3/6
f 51/4/6 52/4/6 69/4/6
f 68/3/6 51/3/6 69/3/6
f 65/5/6 66/5/6 70/5/6
f 69/4/6 52/4/6 70/4/6
f 52/5/6 65/5/6 70/5/6
f 70/5/6 66/5/6 71/5/6
f 66/5/6 55/5/6 72/5/6
f 71/5/6 66/5/6 72/5/6
f 55/4/6 56/4/6 73/4/6
f 72/5/6 55/5/6 73/5/6
f 57/3/6 58/3/6 74/3/6
f 73/4/6 56/4/6 74/4/6
f 56/3/6 57/3/6 74/3/6
f 74/3/6 58/3/6 75/3/6
f 58/2/6 22/2/6 76/2/6
f 75/3/6 58/3/6 76/3/6
f 70/4/6 71/4/6 77/4/6
f 68/3/6 69/3/6 77/3/6
f 69/3/6 70/3/6 77/3/6
f 71/5/6 72/5/6 78/5/6
f 77/4/6 71/4/6 78/4/6
f 78/5/6 72/5/6 79/5/6
f 79/5/6 72/5/6 80/5/6
f 72/4/6 73/4/6 81/4/6
f 80/5/6 72/5/6 81/5/6
f 74/3/6 75/3/6 82/3/6
f 81/4/6 73/4/6 82/4/6
f 73/3/6 74/3/6 82/3/6
f 67/2/6 68/2/6 83/2/6
f 68/3/6 77/3/6 83/3/6
f 77/3/6 78/3/6 83/3/6
f 83/3/6 78/3/6 84/3/6
f 78/4/6 79/4/6 85/4/6
f 84/3/6 78/3/6 85/3/6
f 79/5/6 80/5/6 86/5/6
f 85/4/6 79/4/6 86/4/6
f 80/4/6 81/4/6 87/4/6
f 86/5/6 80/5/6 87/5/6
f 81/3/6 82/3/6 88/3/6
f 87/4/6 81/4/6 88/4/6
f 82/3/6 75/3/6 89/3/6
f 88/3/6 82/3/6 89/3/6
f 75/2/6 76/2/6 90/2/6
f 89/3/6 75/3/6 90/3/6
f 85/3/6 86/3/6 91/3/6
f 84/3/6 85/3/6 91/3/6
f 83/2/6 84/2/6 91/2/6
f 91/3/6 86/3/6 92/3/6
f 86/4/6 87/4/6 93/4/6
f 92/3/6 86/3/6 93/3/6
f 87/3/6 88/3/6 94/3/6
f 93/4/6 87/4/6 94/4/6
f 88/3/6 89/3/6 94/3/6
f 94/3/6 89/3/6 95/3/6
f 89/2/6 90/2/6 96/2/6
f 95/3/6 89/3/6 96/3/6
f 92/3/6 93/3/6 97/3/6
f 91/2/6 92/2/6 97/2/6
f 94/3/6 95/3/6 97/3/6
f 93/3/6 94/3/6 97/3/6
f 97/3/6 95/3/6 98/3/6
f 98/3/6 95/3/6 99/3/6
f 95/2/6 96/2/6 100/2/6
f 99/3/6 95/3/6 100/3/6
f 98/3/6 99/3/6 101/3/6
f 97/2/6 98/2/6 101/2/6
f 99/2/6 100/2/6 102/2/6
f 101/3/6 99/3/6 102/3/6
f 83/2/6 91/2/6 103/2/6
f 21/2/6 67/2/6 103/2/6
f 101/2/6 102/2/6 103/2/6
f 97/2/6 101/2/6 103/2/6
f 91/2/6 97/2/6 103/2/6
f 67/2/6 83/2/6 103/2/6
f 96/2/6 90/2/6 104/2/6
f 103/2/6 102/2/6 104/2/6
f 100/2/6 96/2/6 104/2/6
f 102/2/6 100/2/6 104/2/6
f 76/2/6 22/2/6 104/2/6
f 90/2/6 76/2/6 104/2/6
