# MagicaVoxel @ Ephtracy

# material
mtllib pillarWall.mtl
usemtl palette

# normals
vn -1 0 0
vn 1 0 0
vn 0 0 1
vn 0 0 -1
vn 0 -1 0
vn 0 1 0

# texcoords
vt 0.396484 0.5
vt 0.591797 0.5
vt 0.970703 0.5
vt 0.974609 0.5
vt 0.978516 0.5

# verts
v -7 0 -8
v -7 0 -9
v -7 0 -11
v -7 1 -8
v -7 1 -9
v -7 1 -10
v -7 11 -8
v -7 11 -9
v -7 11 -10
v -7 12 -8
v -7 12 -9
v -7 12 -11
v -1 0 -7
v -1 0 -8
v -1 1 -7
v -1 1 -8
v -1 1 -9
v -1 2 -8
v -1 2 -9
v -1 10 -8
v -1 10 -9
v -1 11 -7
v -1 11 -8
v -1 11 -9
v -1 12 -7
v -1 12 -8
v 0 0 -6
v 0 0 -7
v 0 1 -6
v 0 1 -7
v 0 1 -8
v 0 2 -7
v 0 2 -8
v 0 2 -9
v 0 10 -7
v 0 10 -8
v 0 10 -9
v 0 11 -6
v 0 11 -7
v 0 11 -8
v 0 12 -6
v 0 12 -7
v 6 5 -10
v 6 5 -11
v 6 8 -10
v 6 8 -11
v 2 0 -6
v 2 0 -7
v 2 1 -6
v 2 1 -7
v 2 1 -8
v 2 2 -7
v 2 2 -8
v 2 2 -9
v 2 5 -10
v 2 5 -11
v 2 8 -10
v 2 8 -11
v 2 10 -7
v 2 10 -8
v 2 10 -9
v 2 11 -6
v 2 11 -7
v 2 11 -8
v 2 12 -6
v 2 12 -7
v 3 0 -7
v 3 0 -8
v 3 1 -7
v 3 1 -8
v 3 1 -9
v 3 2 -8
v 3 2 -9
v 3 10 -8
v 3 10 -9
v 3 11 -7
v 3 11 -8
v 3 11 -9
v 3 12 -7
v 3 12 -8
v 9 0 -8
v 9 0 -9
v 9 0 -11
v 9 1 -8
v 9 1 -9
v 9 1 -10
v 9 11 -8
v 9 11 -9
v 9 11 -10
v 9 12 -8
v 9 12 -9
v 9 12 -11
v 0 0 -6
v 0 1 -6
v 0 11 -6
v 0 12 -6
v 2 0 -6
v 2 1 -6
v 2 11 -6
v 2 12 -6
v -1 0 -7
v -1 1 -7
v -1 11 -7
v -1 12 -7
v 0 0 -7
v 0 1 -7
v 0 2 -7
v 0 10 -7
v 0 11 -7
v 0 12 -7
v 2 0 -7
v 2 1 -7
v 2 2 -7
v 2 10 -7
v 2 11 -7
v 2 12 -7
v 3 0 -7
v 3 1 -7
v 3 11 -7
v 3 12 -7
v -7 0 -8
v -7 1 -8
v -7 11 -8
v -7 12 -8
v -1 0 -8
v -1 1 -8
v -1 2 -8
v -1 10 -8
v -1 11 -8
v -1 12 -8
v 0 1 -8
v 0 2 -8
v 0 10 -8
v 0 11 -8
v 2 1 -8
v 2 2 -8
v 2 10 -8
v 2 11 -8
v 3 0 -8
v 3 1 -8
v 3 2 -8
v 3 10 -8
v 3 11 -8
v 3 12 -8
v 9 0 -8
v 9 1 -8
v 9 11 -8
v 9 12 -8
v -7 1 -9
v -7 11 -9
v -6 1 -9
v -6 11 -9
v -1 1 -9
v -1 2 -9
v -1 10 -9
v -1 11 -9
v 0 2 -9
v 0 10 -9
v 2 2 -9
v 2 10 -9
v 3 1 -9
v 3 2 -9
v 3 10 -9
v 3 11 -9
v 8 1 -9
v 8 11 -9
v 9 1 -9
v 9 11 -9
v 2 5 -10
v 2 8 -10
v 6 5 -10
v 6 8 -10
v -7 0 -11
v -7 12 -11
v -4 4 -11
v -4 8 -11
v 0 4 -11
v 0 8 -11
v 2 4 -11
v 2 5 -11
v 2 8 -11
v 6 4 -11
v 6 5 -11
v 6 8 -11
v 9 0 -11
v 9 12 -11
v 0 0 -6
v 2 0 -6
v -1 0 -7
v 0 0 -7
v 2 0 -7
v 3 0 -7
v -7 0 -8
v -1 0 -8
v 3 0 -8
v 9 0 -8
v -7 0 -9
v 9 0 -9
v -7 0 -11
v 9 0 -11
v 2 8 -10
v 6 8 -10
v 2 8 -11
v 6 8 -11
v 0 10 -7
v 2 10 -7
v -1 10 -8
v 0 10 -8
v 2 10 -8
v 3 10 -8
v -1 10 -9
v 0 10 -9
v 2 10 -9
v 3 10 -9
v 0 11 -6
v 2 11 -6
v -1 11 -7
v 0 11 -7
v 2 11 -7
v 3 11 -7
v -7 11 -8
v -1 11 -8
v 0 11 -8
v 2 11 -8
v 3 11 -8
v 9 11 -8
v -7 11 -9
v -6 11 -9
v -1 11 -9
v 3 11 -9
v 8 11 -9
v 9 11 -9
v 0 1 -6
v 2 1 -6
v -1 1 -7
v 0 1 -7
v 2 1 -7
v 3 1 -7
v -7 1 -8
v -1 1 -8
v 0 1 -8
v 2 1 -8
v 3 1 -8
v 9 1 -8
v -7 1 -9
v -6 1 -9
v -1 1 -9
v 3 1 -9
v 8 1 -9
v 9 1 -9
v 0 2 -7
v 2 2 -7
v -1 2 -8
v 0 2 -8
v 2 2 -8
v 3 2 -8
v -1 2 -9
v 0 2 -9
v 2 2 -9
v 3 2 -9
v 2 5 -10
v 6 5 -10
v 2 5 -11
v 6 5 -11
v 0 12 -6
v 2 12 -6
v -1 12 -7
v 0 12 -7
v 2 12 -7
v 3 12 -7
v -7 12 -8
v -1 12 -8
v 3 12 -8
v 9 12 -8
v -7 12 -9
v 9 12 -9
v -7 12 -11
v 9 12 -11

# faces
f 4/4/1 2/4/1 1/4/1
f 5/3/1 3/3/1 2/3/1
f 5/4/1 2/4/1 4/4/1
f 6/3/1 3/3/1 5/3/1
f 8/5/1 6/5/1 5/5/1
f 9/3/1 3/3/1 6/3/1
f 9/5/1 6/5/1 8/5/1
f 10/4/1 8/4/1 7/4/1
f 11/3/1 9/3/1 8/3/1
f 11/4/1 8/4/1 10/4/1
f 12/3/1 3/3/1 9/3/1
f 12/3/1 9/3/1 11/3/1
f 15/1/1 14/1/1 13/1/1
f 16/1/1 14/1/1 15/1/1
f 18/1/1 17/1/1 16/1/1
f 19/1/1 17/1/1 18/1/1
f 23/1/1 21/1/1 20/1/1
f 24/1/1 21/1/1 23/1/1
f 25/1/1 23/1/1 22/1/1
f 26/1/1 23/1/1 25/1/1
f 29/1/1 28/1/1 27/1/1
f 30/1/1 28/1/1 29/1/1
f 32/1/1 31/1/1 30/1/1
f 33/1/1 31/1/1 32/1/1
f 36/1/1 34/1/1 33/1/1
f 37/1/1 34/1/1 36/1/1
f 39/1/1 36/1/1 35/1/1
f 40/1/1 36/1/1 39/1/1
f 41/1/1 39/1/1 38/1/1
f 42/1/1 39/1/1 41/1/1
f 45/3/1 44/3/1 43/3/1
f 46/3/1 44/3/1 45/3/1
f 47/1/2 48/1/2 49/1/2
f 49/1/2 48/1/2 50/1/2
f 50/1/2 51/1/2 52/1/2
f 52/1/2 51/1/2 53/1/2
f 55/3/2 56/3/2 57/3/2
f 57/3/2 56/3/2 58/3/2
f 53/1/2 54/1/2 60/1/2
f 60/1/2 54/1/2 61/1/2
f 59/1/2 60/1/2 63/1/2
f 63/1/2 60/1/2 64/1/2
f 62/1/2 63/1/2 65/1/2
f 65/1/2 63/1/2 66/1/2
f 67/1/2 68/1/2 69/1/2
f 69/1/2 68/1/2 70/1/2
f 70/1/2 71/1/2 72/1/2
f 72/1/2 71/1/2 73/1/2
f 74/1/2 75/1/2 77/1/2
f 77/1/2 75/1/2 78/1/2
f 76/1/2 77/1/2 79/1/2
f 79/1/2 77/1/2 80/1/2
f 81/4/2 82/4/2 84/4/2
f 82/3/2 83/3/2 85/3/2
f 84/4/2 82/4/2 85/4/2
f 85/3/2 83/3/2 86/3/2
f 85/5/2 86/5/2 88/5/2
f 86/3/2 83/3/2 89/3/2
f 88/5/2 86/5/2 89/5/2
f 87/4/2 88/4/2 90/4/2
f 88/3/2 89/3/2 91/3/2
f 90/4/2 88/4/2 91/4/2
f 89/3/2 83/3/2 92/3/2
f 91/3/2 89/3/2 92/3/2
f 97/1/3 94/1/3 93/1/3
f 98/1/3 94/1/3 97/1/3
f 99/1/3 96/1/3 95/1/3
f 100/1/3 96/1/3 99/1/3
f 105/1/3 102/1/3 101/1/3
f 106/1/3 102/1/3 105/1/3
f 109/1/3 104/1/3 103/1/3
f 110/1/3 104/1/3 109/1/3
f 112/1/3 107/1/3 106/1/3
f 113/1/3 107/1/3 112/1/3
f 114/1/3 109/1/3 108/1/3
f 115/1/3 109/1/3 114/1/3
f 117/1/3 112/1/3 111/1/3
f 118/1/3 112/1/3 117/1/3
f 119/1/3 116/1/3 115/1/3
f 120/1/3 116/1/3 119/1/3
f 125/4/3 122/4/3 121/4/3
f 126/4/3 122/4/3 125/4/3
f 129/4/3 124/4/3 123/4/3
f 130/4/3 124/4/3 129/4/3
f 131/1/3 127/1/3 126/1/3
f 132/1/3 127/1/3 131/1/3
f 133/1/3 129/1/3 128/1/3
f 134/1/3 129/1/3 133/1/3
f 136/1/3 133/1/3 132/1/3
f 137/1/3 133/1/3 136/1/3
f 140/1/3 136/1/3 135/1/3
f 141/1/3 136/1/3 140/1/3
f 142/1/3 138/1/3 137/1/3
f 143/1/3 138/1/3 142/1/3
f 145/4/3 140/4/3 139/4/3
f 146/4/3 140/4/3 145/4/3
f 147/4/3 144/4/3 143/4/3
f 148/4/3 144/4/3 147/4/3
f 151/5/3 150/5/3 149/5/3
f 152/5/3 150/5/3 151/5/3
f 153/3/3 152/3/3 151/3/3
f 154/3/3 152/3/3 153/3/3
f 155/3/3 152/3/3 154/3/3
f 156/3/3 152/3/3 155/3/3
f 157/3/3 155/3/3 154/3/3
f 158/3/3 155/3/3 157/3/3
f 162/3/3 160/3/3 159/3/3
f 163/3/3 160/3/3 162/3/3
f 165/3/3 163/3/3 162/3/3
f 165/3/3 164/3/3 163/3/3
f 165/3/3 162/3/3 161/3/3
f 166/3/3 164/3/3 165/3/3
f 167/5/3 166/5/3 165/5/3
f 168/5/3 166/5/3 167/5/3
f 169/3/4 170/3/4 171/3/4
f 171/3/4 170/3/4 172/3/4
f 173/3/4 174/3/4 175/3/4
f 175/3/4 174/3/4 176/3/4
f 173/3/4 175/3/4 177/3/4
f 175/2/4 176/2/4 177/2/4
f 176/3/4 174/3/4 178/3/4
f 177/2/4 176/2/4 178/2/4
f 173/3/4 177/3/4 179/3/4
f 177/3/4 178/3/4 179/3/4
f 179/3/4 178/3/4 180/3/4
f 178/3/4 174/3/4 181/3/4
f 180/3/4 178/3/4 181/3/4
f 179/2/4 180/2/4 182/2/4
f 173/3/4 179/3/4 182/3/4
f 182/2/4 180/2/4 183/2/4
f 181/3/4 174/3/4 184/3/4
f 182/3/4 183/3/4 185/3/4
f 183/3/4 184/3/4 185/3/4
f 173/3/4 182/3/4 185/3/4
f 184/3/4 174/3/4 186/3/4
f 185/3/4 184/3/4 186/3/4
f 190/1/5 188/1/5 187/1/5
f 191/1/5 188/1/5 190/1/5
f 194/1/5 190/1/5 189/1/5
f 194/1/5 192/1/5 191/1/5
f 194/1/5 191/1/5 190/1/5
f 195/1/5 192/1/5 194/1/5
f 197/4/5 194/4/5 193/4/5
f 197/4/5 196/4/5 195/4/5
f 197/4/5 195/4/5 194/4/5
f 198/4/5 196/4/5 197/4/5
f 199/3/5 198/3/5 197/3/5
f 200/3/5 198/3/5 199/3/5
f 203/3/5 202/3/5 201/3/5
f 204/3/5 202/3/5 203/3/5
f 208/1/5 206/1/5 205/1/5
f 209/1/5 206/1/5 208/1/5
f 211/1/5 208/1/5 207/1/5
f 212/1/5 208/1/5 211/1/5
f 213/1/5 210/1/5 209/1/5
f 214/1/5 210/1/5 213/1/5
f 218/1/5 216/1/5 215/1/5
f 219/1/5 216/1/5 218/1/5
f 222/1/5 218/1/5 217/1/5
f 223/1/5 218/1/5 222/1/5
f 224/1/5 220/1/5 219/1/5
f 225/1/5 220/1/5 224/1/5
f 227/4/5 222/4/5 221/4/5
f 228/4/5 222/4/5 227/4/5
f 229/4/5 222/4/5 228/4/5
f 230/4/5 226/4/5 225/4/5
f 231/4/5 226/4/5 230/4/5
f 232/4/5 226/4/5 231/4/5
f 233/1/6 234/1/6 236/1/6
f 236/1/6 234/1/6 237/1/6
f 235/1/6 236/1/6 240/1/6
f 240/1/6 236/1/6 241/1/6
f 237/1/6 238/1/6 242/1/6
f 242/1/6 238/1/6 243/1/6
f 239/4/6 240/4/6 245/4/6
f 245/4/6 240/4/6 246/4/6
f 246/4/6 240/4/6 247/4/6
f 243/4/6 244/4/6 248/4/6
f 248/4/6 244/4/6 249/4/6
f 249/4/6 244/4/6 250/4/6
f 251/1/6 252/1/6 254/1/6
f 254/1/6 252/1/6 255/1/6
f 253/1/6 254/1/6 257/1/6
f 257/1/6 254/1/6 258/1/6
f 255/1/6 256/1/6 259/1/6
f 259/1/6 256/1/6 260/1/6
f 261/2/6 262/2/6 263/2/6
f 263/2/6 262/2/6 264/2/6
f 265/1/6 266/1/6 268/1/6
f 268/1/6 266/1/6 269/1/6
f 267/1/6 268/1/6 272/1/6
f 269/1/6 270/1/6 272/1/6
f 268/1/6 269/1/6 272/1/6
f 272/1/6 270/1/6 273/1/6
f 271/4/6 272/4/6 275/4/6
f 273/4/6 274/4/6 275/4/6
f 272/4/6 273/4/6 275/4/6
f 275/4/6 274/4/6 276/4/6
f 275/3/6 276/3/6 277/3/6
f 277/3/6 276/3/6 278/3/6
