# MagicaVoxel @ Ephtracy

# material
mtllib windowWall.mtl
usemtl palette

# normals
vn -1 0 0
vn 1 0 0
vn 0 0 1
vn 0 0 -1
vn 0 -1 0
vn 0 1 0

# texcoords
vt 0.396484 0.5
vt 0.591797 0.5
vt 0.705078 0.5
vt 0.970703 0.5
vt 0.974609 0.5
vt 0.978516 0.5

# verts
v -7 0 -8
v -7 0 -9
v -7 0 -11
v -7 1 -8
v -7 1 -9
v -7 1 -10
v -7 11 -8
v -7 11 -9
v -7 11 -10
v -7 12 -8
v -7 12 -9
v -7 12 -11
v -5 4 -8
v -5 4 -9
v -5 8 -8
v -5 8 -9
v -4 3 -8
v -4 3 -9
v -4 4 -8
v -4 4 -9
v -2 4 -8
v -2 4 -9
v -2 7 -8
v -2 7 -9
v -1 0 -7
v -1 0 -8
v -1 1 -7
v -1 1 -8
v -1 1 -9
v -1 2 -8
v -1 2 -9
v -1 10 -8
v -1 10 -9
v -1 11 -7
v -1 11 -8
v -1 11 -9
v -1 12 -7
v -1 12 -8
v 0 0 -6
v 0 0 -7
v 0 1 -6
v 0 1 -7
v 0 1 -8
v 0 2 -7
v 0 2 -8
v 0 2 -9
v 0 10 -7
v 0 10 -8
v 0 10 -9
v 0 11 -6
v 0 11 -7
v 0 11 -8
v 0 12 -6
v 0 12 -7
v 3 4 -8
v 3 4 -9
v 3 8 -8
v 3 8 -9
v 4 3 -8
v 4 3 -9
v 4 4 -8
v 4 4 -9
v 6 4 -8
v 6 4 -9
v 6 5 -10
v 6 5 -11
v 6 7 -8
v 6 7 -9
v 6 7 -10
v 6 8 -10
v 6 8 -11
v -4 4 -8
v -4 4 -9
v -4 7 -8
v -4 7 -9
v -2 3 -8
v -2 3 -9
v -2 4 -8
v -2 4 -9
v -1 4 -8
v -1 4 -9
v -1 8 -8
v -1 8 -9
v 2 0 -6
v 2 0 -7
v 2 1 -6
v 2 1 -7
v 2 1 -8
v 2 2 -7
v 2 2 -8
v 2 2 -9
v 2 5 -10
v 2 5 -11
v 2 8 -10
v 2 8 -11
v 2 10 -7
v 2 10 -8
v 2 10 -9
v 2 11 -6
v 2 11 -7
v 2 11 -8
v 2 12 -6
v 2 12 -7
v 3 0 -7
v 3 0 -8
v 3 1 -7
v 3 1 -8
v 3 1 -9
v 3 2 -8
v 3 2 -9
v 3 10 -8
v 3 10 -9
v 3 11 -7
v 3 11 -8
v 3 11 -9
v 3 12 -7
v 3 12 -8
v 4 4 -8
v 4 4 -9
v 4 7 -8
v 4 7 -9
v 6 3 -8
v 6 3 -9
v 6 4 -8
v 6 4 -9
v 7 4 -8
v 7 4 -9
v 7 8 -8
v 7 8 -9
v 9 0 -8
v 9 0 -9
v 9 0 -11
v 9 1 -8
v 9 1 -9
v 9 1 -10
v 9 11 -8
v 9 11 -9
v 9 11 -10
v 9 12 -8
v 9 12 -9
v 9 12 -11
v 0 0 -6
v 0 1 -6
v 0 11 -6
v 0 12 -6
v 2 0 -6
v 2 1 -6
v 2 11 -6
v 2 12 -6
v -1 0 -7
v -1 1 -7
v -1 11 -7
v -1 12 -7
v 0 0 -7
v 0 1 -7
v 0 2 -7
v 0 10 -7
v 0 11 -7
v 0 12 -7
v 2 0 -7
v 2 1 -7
v 2 2 -7
v 2 10 -7
v 2 11 -7
v 2 12 -7
v 3 0 -7
v 3 1 -7
v 3 11 -7
v 3 12 -7
v -7 0 -8
v -7 1 -8
v -7 11 -8
v -7 12 -8
v -5 4 -8
v -5 8 -8
v -4 3 -8
v -4 4 -8
v -4 7 -8
v -2 3 -8
v -2 4 -8
v -2 7 -8
v -1 0 -8
v -1 1 -8
v -1 2 -8
v -1 4 -8
v -1 8 -8
v -1 10 -8
v -1 11 -8
v -1 12 -8
v 0 1 -8
v 0 2 -8
v 0 10 -8
v 0 11 -8
v 2 1 -8
v 2 2 -8
v 2 10 -8
v 2 11 -8
v 3 0 -8
v 3 1 -8
v 3 2 -8
v 3 4 -8
v 3 8 -8
v 3 10 -8
v 3 11 -8
v 3 12 -8
v 4 3 -8
v 4 4 -8
v 4 7 -8
v 6 3 -8
v 6 4 -8
v 6 7 -8
v 7 4 -8
v 7 8 -8
v 9 0 -8
v 9 1 -8
v 9 11 -8
v 9 12 -8
v -7 1 -9
v -7 11 -9
v -6 1 -9
v -6 11 -9
v -5 4 -9
v -5 8 -9
v -4 3 -9
v -4 4 -9
v -4 7 -9
v -2 3 -9
v -2 4 -9
v -2 7 -9
v -1 1 -9
v -1 2 -9
v -1 4 -9
v -1 8 -9
v -1 10 -9
v -1 11 -9
v 0 2 -9
v 0 10 -9
v 2 2 -9
v 2 10 -9
v 3 1 -9
v 3 2 -9
v 3 4 -9
v 3 8 -9
v 3 10 -9
v 3 11 -9
v 4 3 -9
v 4 4 -9
v 4 7 -9
v 6 3 -9
v 6 4 -9
v 6 7 -9
v 7 4 -9
v 7 8 -9
v 8 1 -9
v 8 11 -9
v 9 1 -9
v 9 11 -9
v 2 5 -10
v 2 8 -10
v 4 5 -10
v 4 7 -10
v 6 5 -10
v 6 7 -10
v 6 8 -10
v -7 0 -11
v -7 12 -11
v -4 4 -11
v -4 8 -11
v 0 4 -11
v 0 8 -11
v 2 4 -11
v 2 5 -11
v 2 8 -11
v 6 4 -11
v 6 5 -11
v 6 8 -11
v 9 0 -11
v 9 12 -11
v 0 0 -6
v 2 0 -6
v -1 0 -7
v 0 0 -7
v 2 0 -7
v 3 0 -7
v -7 0 -8
v -1 0 -8
v 3 0 -8
v 9 0 -8
v -7 0 -9
v 9 0 -9
v -7 0 -11
v 9 0 -11
v -4 3 -8
v -2 3 -8
v 4 3 -8
v 6 3 -8
v -4 3 -9
v -2 3 -9
v 4 3 -9
v 6 3 -9
v -5 4 -8
v -4 4 -8
v -2 4 -8
v -1 4 -8
v 3 4 -8
v 4 4 -8
v 6 4 -8
v 7 4 -8
v -5 4 -9
v -4 4 -9
v -2 4 -9
v -1 4 -9
v 3 4 -9
v 4 4 -9
v 6 4 -9
v 7 4 -9
v -4 7 -8
v -2 7 -8
v 4 7 -8
v 6 7 -8
v -4 7 -9
v -2 7 -9
v 4 7 -9
v 6 7 -9
v 2 8 -10
v 6 8 -10
v 2 8 -11
v 6 8 -11
v 0 10 -7
v 2 10 -7
v -1 10 -8
v 0 10 -8
v 2 10 -8
v 3 10 -8
v -1 10 -9
v 0 10 -9
v 2 10 -9
v 3 10 -9
v 0 11 -6
v 2 11 -6
v -1 11 -7
v 0 11 -7
v 2 11 -7
v 3 11 -7
v -7 11 -8
v -1 11 -8
v 0 11 -8
v 2 11 -8
v 3 11 -8
v 9 11 -8
v -7 11 -9
v -6 11 -9
v -1 11 -9
v 3 11 -9
v 8 11 -9
v 9 11 -9
v 0 1 -6
v 2 1 -6
v -1 1 -7
v 0 1 -7
v 2 1 -7
v 3 1 -7
v -7 1 -8
v -1 1 -8
v 0 1 -8
v 2 1 -8
v 3 1 -8
v 9 1 -8
v -7 1 -9
v -6 1 -9
v -1 1 -9
v 3 1 -9
v 8 1 -9
v 9 1 -9
v 0 2 -7
v 2 2 -7
v -1 2 -8
v 0 2 -8
v 2 2 -8
v 3 2 -8
v -1 2 -9
v 0 2 -9
v 2 2 -9
v 3 2 -9
v -4 4 -8
v -2 4 -8
v 4 4 -8
v 6 4 -8
v -4 4 -9
v -2 4 -9
v 4 4 -9
v 6 4 -9
v 2 5 -10
v 4 5 -10
v 6 5 -10
v 2 5 -11
v 6 5 -11
v -5 8 -8
v -1 8 -8
v 3 8 -8
v 7 8 -8
v -5 8 -9
v -1 8 -9
v 3 8 -9
v 7 8 -9
v 0 12 -6
v 2 12 -6
v -1 12 -7
v 0 12 -7
v 2 12 -7
v 3 12 -7
v -7 12 -8
v -1 12 -8
v 3 12 -8
v 9 12 -8
v -7 12 -9
v 9 12 -9
v -7 12 -11
v 9 12 -11

# faces
f 4/5/1 2/5/1 1/5/1
f 5/4/1 3/4/1 2/4/1
f 5/5/1 2/5/1 4/5/1
f 6/4/1 3/4/1 5/4/1
f 8/6/1 6/6/1 5/6/1
f 9/4/1 3/4/1 6/4/1
f 9/6/1 6/6/1 8/6/1
f 10/5/1 8/5/1 7/5/1
f 11/4/1 9/4/1 8/4/1
f 11/5/1 8/5/1 10/5/1
f 12/4/1 3/4/1 9/4/1
f 12/4/1 9/4/1 11/4/1
f 15/5/1 14/5/1 13/5/1
f 16/5/1 14/5/1 15/5/1
f 19/5/1 18/5/1 17/5/1
f 20/5/1 18/5/1 19/5/1
f 23/5/1 22/5/1 21/5/1
f 24/5/1 22/5/1 23/5/1
f 27/1/1 26/1/1 25/1/1
f 28/1/1 26/1/1 27/1/1
f 30/1/1 29/1/1 28/1/1
f 31/1/1 29/1/1 30/1/1
f 35/1/1 33/1/1 32/1/1
f 36/1/1 33/1/1 35/1/1
f 37/1/1 35/1/1 34/1/1
f 38/1/1 35/1/1 37/1/1
f 41/1/1 40/1/1 39/1/1
f 42/1/1 40/1/1 41/1/1
f 44/1/1 43/1/1 42/1/1
f 45/1/1 43/1/1 44/1/1
f 48/1/1 46/1/1 45/1/1
f 49/1/1 46/1/1 48/1/1
f 51/1/1 48/1/1 47/1/1
f 52/1/1 48/1/1 51/1/1
f 53/1/1 51/1/1 50/1/1
f 54/1/1 51/1/1 53/1/1
f 57/5/1 56/5/1 55/5/1
f 58/5/1 56/5/1 57/5/1
f 61/5/1 60/5/1 59/5/1
f 62/5/1 60/5/1 61/5/1
f 67/5/1 64/5/1 63/5/1
f 68/5/1 64/5/1 67/5/1
f 69/4/1 66/4/1 65/4/1
f 70/4/1 66/4/1 69/4/1
f 71/4/1 66/4/1 70/4/1
f 72/5/2 73/5/2 74/5/2
f 74/5/2 73/5/2 75/5/2
f 76/5/2 77/5/2 78/5/2
f 78/5/2 77/5/2 79/5/2
f 80/5/2 81/5/2 82/5/2
f 82/5/2 81/5/2 83/5/2
f 84/1/2 85/1/2 86/1/2
f 86/1/2 85/1/2 87/1/2
f 87/1/2 88/1/2 89/1/2
f 89/1/2 88/1/2 90/1/2
f 92/4/2 93/4/2 94/4/2
f 94/4/2 93/4/2 95/4/2
f 90/1/2 91/1/2 97/1/2
f 97/1/2 91/1/2 98/1/2
f 96/1/2 97/1/2 100/1/2
f 100/1/2 97/1/2 101/1/2
f 99/1/2 100/1/2 102/1/2
f 102/1/2 100/1/2 103/1/2
f 104/1/2 105/1/2 106/1/2
f 106/1/2 105/1/2 107/1/2
f 107/1/2 108/1/2 109/1/2
f 109/1/2 108/1/2 110/1/2
f 111/1/2 112/1/2 114/1/2
f 114/1/2 112/1/2 115/1/2
f 113/1/2 114/1/2 116/1/2
f 116/1/2 114/1/2 117/1/2
f 118/5/2 119/5/2 120/5/2
f 120/5/2 119/5/2 121/5/2
f 122/5/2 123/5/2 124/5/2
f 124/5/2 123/5/2 125/5/2
f 126/5/2 127/5/2 128/5/2
f 128/5/2 127/5/2 129/5/2
f 130/5/2 131/5/2 133/5/2
f 131/4/2 132/4/2 134/4/2
f 133/5/2 131/5/2 134/5/2
f 134/4/2 132/4/2 135/4/2
f 134/6/2 135/6/2 137/6/2
f 135/4/2 132/4/2 138/4/2
f 137/6/2 135/6/2 138/6/2
f 136/5/2 137/5/2 139/5/2
f 137/4/2 138/4/2 140/4/2
f 139/5/2 137/5/2 140/5/2
f 138/4/2 132/4/2 141/4/2
f 140/4/2 138/4/2 141/4/2
f 146/1/3 143/1/3 142/1/3
f 147/1/3 143/1/3 146/1/3
f 148/1/3 145/1/3 144/1/3
f 149/1/3 145/1/3 148/1/3
f 154/1/3 151/1/3 150/1/3
f 155/1/3 151/1/3 154/1/3
f 158/1/3 153/1/3 152/1/3
f 159/1/3 153/1/3 158/1/3
f 161/1/3 156/1/3 155/1/3
f 162/1/3 156/1/3 161/1/3
f 163/1/3 158/1/3 157/1/3
f 164/1/3 158/1/3 163/1/3
f 166/1/3 161/1/3 160/1/3
f 167/1/3 161/1/3 166/1/3
f 168/1/3 165/1/3 164/1/3
f 169/1/3 165/1/3 168/1/3
f 177/5/3 175/5/3 174/5/3
f 178/5/3 175/5/3 177/5/3
f 179/5/3 177/5/3 176/5/3
f 180/5/3 177/5/3 179/5/3
f 181/5/3 175/5/3 178/5/3
f 182/5/3 171/5/3 170/5/3
f 183/5/3 171/5/3 182/5/3
f 185/5/3 181/5/3 180/5/3
f 186/5/3 175/5/3 181/5/3
f 186/5/3 181/5/3 185/5/3
f 188/5/3 173/5/3 172/5/3
f 189/5/3 173/5/3 188/5/3
f 190/1/3 184/1/3 183/1/3
f 191/1/3 184/1/3 190/1/3
f 192/1/3 188/1/3 187/1/3
f 193/1/3 188/1/3 192/1/3
f 195/1/3 192/1/3 191/1/3
f 196/1/3 192/1/3 195/1/3
f 199/1/3 195/1/3 194/1/3
f 200/1/3 195/1/3 199/1/3
f 203/1/3 197/1/3 196/1/3
f 204/1/3 197/1/3 203/1/3
f 207/5/3 202/5/3 201/5/3
f 208/5/3 202/5/3 207/5/3
f 209/5/3 207/5/3 206/5/3
f 210/5/3 207/5/3 209/5/3
f 211/5/3 202/5/3 208/5/3
f 212/5/3 211/5/3 210/5/3
f 213/5/3 202/5/3 211/5/3
f 213/5/3 211/5/3 212/5/3
f 214/5/3 199/5/3 198/5/3
f 215/5/3 199/5/3 214/5/3
f 216/5/3 205/5/3 204/5/3
f 217/5/3 205/5/3 216/5/3
f 220/6/3 219/6/3 218/6/3
f 221/6/3 219/6/3 220/6/3
f 222/4/3 221/4/3 220/4/3
f 223/4/3 221/4/3 222/4/3
f 224/4/3 222/4/3 220/4/3
f 225/4/3 222/4/3 224/4/3
f 227/4/3 224/4/3 220/4/3
f 228/3/3 226/3/3 225/3/3
f 229/3/3 226/3/3 228/3/3
f 230/4/3 227/4/3 220/4/3
f 230/4/3 228/4/3 227/4/3
f 231/4/3 228/4/3 230/4/3
f 232/4/3 228/4/3 231/4/3
f 233/4/3 221/4/3 223/4/3
f 234/4/3 221/4/3 233/4/3
f 235/4/3 221/4/3 234/4/3
f 236/4/3 232/4/3 231/4/3
f 236/4/3 234/4/3 233/4/3
f 236/4/3 233/4/3 232/4/3
f 237/4/3 234/4/3 236/4/3
f 241/4/3 239/4/3 238/4/3
f 242/4/3 239/4/3 241/4/3
f 243/4/3 239/4/3 242/4/3
f 244/4/3 239/4/3 243/4/3
f 246/4/3 241/4/3 240/4/3
f 246/4/3 242/4/3 241/4/3
f 247/4/3 242/4/3 246/4/3
f 249/4/3 246/4/3 240/4/3
f 250/3/3 248/3/3 247/3/3
f 251/3/3 248/3/3 250/3/3
f 252/4/3 250/4/3 249/4/3
f 253/4/3 244/4/3 243/4/3
f 253/4/3 245/4/3 244/4/3
f 254/4/3 252/4/3 249/4/3
f 254/4/3 253/4/3 252/4/3
f 254/4/3 249/4/3 240/4/3
f 255/4/3 245/4/3 253/4/3
f 255/4/3 253/4/3 254/4/3
f 256/6/3 255/6/3 254/6/3
f 257/6/3 255/6/3 256/6/3
f 258/4/4 259/4/4 260/4/4
f 260/4/4 259/4/4 261/4/4
f 260/3/4 261/3/4 262/3/4
f 261/4/4 259/4/4 263/4/4
f 262/3/4 261/3/4 263/3/4
f 263/4/4 259/4/4 264/4/4
f 265/4/4 266/4/4 267/4/4
f 267/4/4 266/4/4 268/4/4
f 265/4/4 267/4/4 269/4/4
f 267/2/4 268/2/4 269/2/4
f 268/4/4 266/4/4 270/4/4
f 269/2/4 268/2/4 270/2/4
f 265/4/4 269/4/4 271/4/4
f 269/4/4 270/4/4 271/4/4
f 271/4/4 270/4/4 272/4/4
f 270/4/4 266/4/4 273/4/4
f 272/4/4 270/4/4 273/4/4
f 271/2/4 272/2/4 274/2/4
f 265/4/4 271/4/4 274/4/4
f 274/2/4 272/2/4 275/2/4
f 273/4/4 266/4/4 276/4/4
f 274/4/4 275/4/4 277/4/4
f 275/4/4 276/4/4 277/4/4
f 265/4/4 274/4/4 277/4/4
f 276/4/4 266/4/4 278/4/4
f 277/4/4 276/4/4 278/4/4
f 282/1/5 280/1/5 279/1/5
f 283/1/5 280/1/5 282/1/5
f 286/1/5 282/1/5 281/1/5
f 286/1/5 284/1/5 283/1/5
f 286/1/5 283/1/5 282/1/5
f 287/1/5 284/1/5 286/1/5
f 289/5/5 286/5/5 285/5/5
f 289/5/5 288/5/5 287/5/5
f 289/5/5 287/5/5 286/5/5
f 290/5/5 288/5/5 289/5/5
f 291/4/5 290/4/5 289/4/5
f 292/4/5 290/4/5 291/4/5
f 297/5/5 294/5/5 293/5/5
f 298/5/5 294/5/5 297/5/5
f 299/5/5 296/5/5 295/5/5
f 300/5/5 296/5/5 299/5/5
f 309/5/5 302/5/5 301/5/5
f 310/5/5 302/5/5 309/5/5
f 311/5/5 304/5/5 303/5/5
f 312/5/5 304/5/5 311/5/5
f 313/5/5 306/5/5 305/5/5
f 314/5/5 306/5/5 313/5/5
f 315/5/5 308/5/5 307/5/5
f 316/5/5 308/5/5 315/5/5
f 321/5/5 318/5/5 317/5/5
f 322/5/5 318/5/5 321/5/5
f 323/5/5 320/5/5 319/5/5
f 324/5/5 320/5/5 323/5/5
f 327/4/5 326/4/5 325/4/5
f 328/4/5 326/4/5 327/4/5
f 332/1/5 330/1/5 329/1/5
f 333/1/5 330/1/5 332/1/5
f 335/1/5 332/1/5 331/1/5
f 336/1/5 332/1/5 335/1/5
f 337/1/5 334/1/5 333/1/5
f 338/1/5 334/1/5 337/1/5
f 342/1/5 340/1/5 339/1/5
f 343/1/5 340/1/5 342/1/5
f 346/1/5 342/1/5 341/1/5
f 347/1/5 342/1/5 346/1/5
f 348/1/5 344/1/5 343/1/5
f 349/1/5 344/1/5 348/1/5
f 351/5/5 346/5/5 345/5/5
f 352/5/5 346/5/5 351/5/5
f 353/5/5 346/5/5 352/5/5
f 354/5/5 350/5/5 349/5/5
f 355/5/5 350/5/5 354/5/5
f 356/5/5 350/5/5 355/5/5
f 357/1/6 358/1/6 360/1/6
f 360/1/6 358/1/6 361/1/6
f 359/1/6 360/1/6 364/1/6
f 364/1/6 360/1/6 365/1/6
f 361/1/6 362/1/6 366/1/6
f 366/1/6 362/1/6 367/1/6
f 363/5/6 364/5/6 369/5/6
f 369/5/6 364/5/6 370/5/6
f 370/5/6 364/5/6 371/5/6
f 367/5/6 368/5/6 372/5/6
f 372/5/6 368/5/6 373/5/6
f 373/5/6 368/5/6 374/5/6
f 375/1/6 376/1/6 378/1/6
f 378/1/6 376/1/6 379/1/6
f 377/1/6 378/1/6 381/1/6
f 381/1/6 378/1/6 382/1/6
f 379/1/6 380/1/6 383/1/6
f 383/1/6 380/1/6 384/1/6
f 385/5/6 386/5/6 389/5/6
f 389/5/6 386/5/6 390/5/6
f 387/5/6 388/5/6 391/5/6
f 391/5/6 388/5/6 392/5/6
f 393/2/6 394/2/6 396/2/6
f 394/2/6 395/2/6 396/2/6
f 396/2/6 395/2/6 397/2/6
f 398/5/6 399/5/6 402/5/6
f 402/5/6 399/5/6 403/5/6
f 400/5/6 401/5/6 404/5/6
f 404/5/6 401/5/6 405/5/6
f 406/1/6 407/1/6 409/1/6
f 409/1/6 407/1/6 410/1/6
f 408/1/6 409/1/6 413/1/6
f 410/1/6 411/1/6 413/1/6
f 409/1/6 410/1/6 413/1/6
f 413/1/6 411/1/6 414/1/6
f 412/5/6 413/5/6 416/5/6
f 414/5/6 415/5/6 416/5/6
f 413/5/6 414/5/6 416/5/6
f 416/5/6 415/5/6 417/5/6
f 416/4/6 417/4/6 418/4/6
f 418/4/6 417/4/6 419/4/6
